# xmcd
#
# Track frame offsets:
# 150
# 22805
# 38995
# 65275
# 89970
# 109518
# 117463
# 144150
# 166215
# 178513
# 198160
# 215698
# 244515
# 271640
#
# Disc length: 3840 seconds
#
# Revision: 0
# Processed by: cddbd v1.5.2PL0 Copyright (c) Steve Scherf et al.
# Submitted via: Audion 3.0.2 (http://www.panic.com/audion/)
#
DISCID=b90efe0e
DTITLE=The Brad Ellis Little Big Band - Cabaret: Themes From the Hit Musical
DYEAR=1900
DGENRE=
TTITLE0=Wilkommen
TTITLE1=So What?
TTITLE2=Don't Tell Mama
TTITLE3=I Don't Care Much
TTITLE4=Perfectly Marvelous
TTITLE5=Sitting Pretty
TTITLE6=It Couldn't Please Me More
TTITLE7=Two Ladies
TTITLE8=Don't Go
TTITLE9=If You Could See Her
TTITLE10=Married
TTITLE11=Maybe This Time
TTITLE12=What Would You Do?
TTITLE13=Cabaret
EXTD=
EXTT0=
EXTT1=
EXTT2=
EXTT3=
EXTT4=
EXTT5=
EXTT6=
EXTT7=
EXTT8=
EXTT9=
EXTT10=
EXTT11=
EXTT12=
EXTT13=
PLAYORDER=
